<mxfile host="app.diagrams.net" modified="2023-12-11T05:27:01.393Z" agent="Mozilla/5.0 (Macintosh; Intel Mac OS X 10_15_7) AppleWebKit/537.36 (KHTML, like Gecko) Chrome/119.0.0.0 Safari/537.36" version="22.1.7" etag="gI9ttDYOyPek_APC_kDj" type="github">
  <diagram name="第 1 页" id="9T1O_hjAn9Cok4O3r07b">
    <mxGraphModel>
      <root>
        <mxCell id="0" />
        <mxCell id="1" parent="0" />
      </root>
    </mxGraphModel>
  </diagram>
</mxfile>
